<svg xmlns="http://www.w3.org/2000/svg" width="267.966" height="29.53" viewBox="0 0 267.966 29.53">
  <g id="up_logo" transform="translate(-52.7 -8.4)">
    <path id="Path_1" data-name="Path 1" d="M220.724,118.9l-.023.047h.023Z" transform="translate(-148.243 -97.505)" fill="#0f75bd"/>
    <path id="Path_2" data-name="Path 2" d="M73.974,59.6l-2.2,4.739-.024.047-2,4.316H71.7v5.9a7.7,7.7,0,0,1-2.54,6.233,10.269,10.269,0,0,1-6.88,2.258,10.348,10.348,0,0,1-6.938-2.258A7.7,7.7,0,0,1,52.7,74.618V59.6h5.386V74.618A4.334,4.334,0,0,0,59.2,77.863,4.226,4.226,0,0,0,62.3,78.957a4.153,4.153,0,0,0,3.046-1.082,4.393,4.393,0,0,0,1.082-3.258V59.6Z" transform="translate(0 -45.179)" fill="#0f75bd"/>
    <path id="Path_3" data-name="Path 3" d="M431.534,77.174a9.532,9.532,0,0,1-3.4,2.493A13.372,13.372,0,0,1,422.49,80.7a9.546,9.546,0,0,1-7-2.646A9.213,9.213,0,0,1,412.8,71.2V66.39a9.32,9.32,0,0,1,2.611-6.833,9.009,9.009,0,0,1,6.727-2.658q4.445,0,6.7,1.987a6.605,6.605,0,0,1,2.187,5.421L431,64.4H425.96a3.225,3.225,0,0,0-.906-2.528,3.994,3.994,0,0,0-2.74-.823,3.647,3.647,0,0,0-3.022,1.47,6.081,6.081,0,0,0-1.141,3.846v4.869a6.118,6.118,0,0,0,1.141,3.881,3.79,3.79,0,0,0,3.187,1.47,8.665,8.665,0,0,0,2.328-.247,3.612,3.612,0,0,0,1.341-.635V71.577h-4.093V68.013h9.479v9.161Z" transform="translate(-317.752 -42.796)" fill="#0f75bd"/>
    <path id="Path_4" data-name="Path 4" d="M592.474,73.889v8.879H587.1V59.6h8.056a10.027,10.027,0,0,1,6.374,1.858,6.115,6.115,0,0,1,2.352,5.092,5.158,5.158,0,0,1-.941,3.093,6.589,6.589,0,0,1-2.787,2.093,5.238,5.238,0,0,1,3.058,2.011,6.174,6.174,0,0,1,.929,3.5v1.47a9.513,9.513,0,0,0,.27,2.07,2.742,2.742,0,0,0,.941,1.646v.329h-5.539a2.559,2.559,0,0,1-.823-1.729,15.581,15.581,0,0,1-.2-2.34V77.3a3.055,3.055,0,0,0-3.434-3.4h-2.893v-.012Zm0-4.14h2.717a3.7,3.7,0,0,0,2.481-.741,2.641,2.641,0,0,0,.858-2.129,3.075,3.075,0,0,0-.882-2.281,3.357,3.357,0,0,0-2.481-.858h-2.693v6.009Z" transform="translate(-471.554 -45.179)" fill="#0f75bd"/>
    <path id="Path_5" data-name="Path 5" d="M770.777,78.163H763.9l-1.341,4.492H756.9L764.45,59.5h2.87v.024l.024-.024h2.869l7.562,23.144h-5.657Zm-5.351-4.14h4.41l-2.164-7.185h-.094Z" transform="translate(-621.385 -45.091)" fill="#0f75bd"/>
    <path id="Path_6" data-name="Path 6" d="M949.1,82.744V59.6h8.479a9.421,9.421,0,0,1,6.833,2.658,9.073,9.073,0,0,1,2.752,6.821v4.163a9.063,9.063,0,0,1-2.752,6.833,9.383,9.383,0,0,1-6.833,2.646H949.1Zm5.363-19V78.628h3.093a3.661,3.661,0,0,0,3.01-1.494,6.05,6.05,0,0,0,1.188-3.869v-4.2a6.016,6.016,0,0,0-1.188-3.834,3.677,3.677,0,0,0-3.01-1.494Z" transform="translate(-790.982 -45.179)" fill="#0f75bd"/>
    <path id="Path_7" data-name="Path 7" d="M1131.124,72.842h-8.15v5.774h9.773v4.128H1117.6V59.6h15.17v4.14h-9.8v4.975h8.15Z" transform="translate(-939.667 -45.179)" fill="#0f75bd"/>
    <path id="Path_8" data-name="Path 8" d="M1262.3,82.744V59.6h8.479a9.421,9.421,0,0,1,6.833,2.658,9.073,9.073,0,0,1,2.752,6.821v4.163a9.064,9.064,0,0,1-2.752,6.833,9.364,9.364,0,0,1-6.833,2.646H1262.3Zm5.233-19V78.628h3.093a3.661,3.661,0,0,0,3.011-1.494,6.05,6.05,0,0,0,1.188-3.869v-4.2a6.015,6.015,0,0,0-1.188-3.834,3.661,3.661,0,0,0-3.011-1.494Z" transform="translate(-1067.35 -45.179)" fill="#0f75bd"/>
    <path id="Path_9" data-name="Path 9" d="M1437.774,74.818v7.938H1432.4V59.6h8.832a9.619,9.619,0,0,1,6.539,2.093,6.989,6.989,0,0,1,2.423,5.515,6.911,6.911,0,0,1-2.423,5.5,9.619,9.619,0,0,1-6.539,2.093h-3.469v.012Zm0-4.128h3.469a3.5,3.5,0,0,0,2.669-.964,3.45,3.45,0,0,0,.917-2.47,3.556,3.556,0,0,0-.917-2.528,3.48,3.48,0,0,0-2.681-.988h-3.469v6.95Z" transform="translate(-1217.446 -45.179)" fill="#f7941e"/>
    <path id="Path_10" data-name="Path 10" d="M1619.063,70.795a9.65,9.65,0,0,1-2.7,7.044,9.5,9.5,0,0,1-7.079,2.775,9.446,9.446,0,0,1-9.879-9.82V66.631a9.676,9.676,0,0,1,2.728-7.044,10.43,10.43,0,0,1,14.194,0,9.657,9.657,0,0,1,2.74,7.044Zm-5.351-4.2a6.721,6.721,0,0,0-1.164-4.069,4.257,4.257,0,0,0-6.633,0,6.811,6.811,0,0,0-1.153,4.081v4.2a6.748,6.748,0,0,0,1.164,4.093,3.911,3.911,0,0,0,3.352,1.6,3.8,3.8,0,0,0,3.269-1.6,6.827,6.827,0,0,0,1.164-4.093V66.6Z" transform="translate(-1364.807 -42.708)" fill="#f7941e"/>
    <rect id="Rectangle_1" data-name="Rectangle 1" width="5.363" height="23.156" transform="translate(255.961 14.421)" fill="#f7941e"/>
    <path id="Path_11" data-name="Path 11" d="M1861.4,82.744h-5.351l-8.479-14.559-.106.024V82.744H1842.1V59.6h5.363l8.479,14.547.106-.035V59.6h5.351Z" transform="translate(-1578.965 -45.179)" fill="#f7941e"/>
    <path id="Path_12" data-name="Path 12" d="M2039.8,63.74h-6.127v19h-5.363v-19H2022.3V59.6h17.5Z" transform="translate(-1737.973 -45.179)" fill="#f7941e"/>
    <path id="Path_13" data-name="Path 13" d="M2190.641,74.146a2.332,2.332,0,0,0-.812-1.905,10.313,10.313,0,0,0-2.94-1.411,22.056,22.056,0,0,1-6.4-2.987,5.359,5.359,0,0,1-2.093-4.551,5.581,5.581,0,0,1,2.434-4.7,11.73,11.73,0,0,1,12.56.071,6.021,6.021,0,0,1,2.34,5.221l-.024.094h-5.221a2.95,2.95,0,0,0-.894-2.376,4.113,4.113,0,0,0-2.693-.741,3.465,3.465,0,0,0-2.3.717,2.241,2.241,0,0,0-.847,1.764,1.915,1.915,0,0,0,.87,1.635,16.623,16.623,0,0,0,3.234,1.529,17.291,17.291,0,0,1,6.092,2.917,5.8,5.8,0,0,1,2.07,4.716,5.56,5.56,0,0,1-2.387,4.775,10.662,10.662,0,0,1-6.327,1.729,11.574,11.574,0,0,1-6.656-1.858q-2.734-1.852-2.658-5.821l.023-.094h5.233a3.6,3.6,0,0,0,.988,2.869,4.614,4.614,0,0,0,3.046.858,3.947,3.947,0,0,0,2.517-.67,2.21,2.21,0,0,0,.847-1.776" transform="translate(-1875.35 -42.708)" fill="#f7941e"/>
    <path id="Path_14" data-name="Path 14" d="M250.582,61.605a9.623,9.623,0,0,0-6.539-2.105H233.6l1.611,3.481.6,1.305,2,4.316h-1.964V82.656h4.728V74.718h3.469a9.619,9.619,0,0,0,6.539-2.093,7.5,7.5,0,0,0,0-11.019Zm-3.258,8.032a3.548,3.548,0,0,1-2.67.964h-3.469v-6.95h3.469a3.481,3.481,0,0,1,2.681.988,3.536,3.536,0,0,1,.917,2.528A3.49,3.49,0,0,1,247.324,69.637Z" transform="translate(-159.626 -45.091)" fill="#0f75bd"/>
    <path id="Path_15" data-name="Path 15" d="M2282.541,11.175h-.588V8.894h-.753V8.4h2.093v.494h-.753Z" transform="translate(-1966.427)" fill="#7c7c7e"/>
    <path id="Path_16" data-name="Path 16" d="M2303.776,11.175,2303.106,9h-.012q.035.67.035.882v1.294h-.529V8.4h.8l.659,2.117h.012l.694-2.117h.8v2.775h-.552V9.647c0-.082.011-.294.023-.647h-.012l-.718,2.176Z" transform="translate(-1985.31)" fill="#7c7c7e"/>
  </g>
</svg>
